# xmcd CD database file
#
# Track frame offsets:
#	150
#	64439
#	105529
#	146530
#	205125
#
# Disc length: 3204 seconds
#
# Revision: 0
# Processed by: cddbd v1.5.2PL0 Copyright (c) Steve Scherf et al.
# Submitted via: CDex 1.70beta2
#
DISCID=470c8205
DTITLE=Satoko Fujii - Nagoyanian (Orchestra Nagoya)
DYEAR=2004
DGENRE=Jazz
TTITLE0=Nagoyanian
TTITLE1=Masai No Mai
TTITLE2=Fue Taiko
TTITLE3=Exile
TTITLE4=Tobifudo
EXTD=YEAR: 2004
EXTT0=
EXTT1=
EXTT2=
EXTT3=
EXTT4=
PLAYORDER=
